<?xml version="1.0" standalone="no"?>
<!DOCTYPE svg PUBLIC "-//W3C//DTD SVG 20010904//EN"
 "http://www.w3.org/TR/2001/REC-SVG-20010904/DTD/svg10.dtd">
<svg version="1.0" xmlns="http://www.w3.org/2000/svg"
 width="902.000000pt" height="312.000000pt" viewBox="0 0 902.000000 312.000000"
 preserveAspectRatio="xMidYMid meet">

<g transform="translate(0.000000,312.000000) scale(0.100000,-0.100000)"
fill="#000000" stroke="none">
<path d="M2325 3109 c-335 -42 -654 -256 -823 -552 -78 -136 -135 -331 -143
-487 l-3 -55 60 -3 61 -3 6 89 c11 157 67 315 162 458 163 245 416 399 713
435 l102 12 0 59 0 58 -32 -1 c-18 -1 -64 -5 -103 -10z"/>
<path d="M1817 2541 c-60 -72 -130 -205 -159 -307 -33 -114 -33 -334 0 -447
36 -127 107 -253 202 -360 4 -4 25 11 48 33 l41 41 -49 61 c-61 76 -114 182
-136 273 -23 94 -23 259 -1 345 24 91 86 215 140 281 l45 57 -41 40 -42 40
-48 -57z"/>
<path d="M2390 2589 c-267 -34 -479 -250 -506 -514 l-7 -66 59 3 59 3 7 55
c26 204 185 367 393 403 l65 11 0 58 c0 32 -1 57 -2 57 -2 -1 -32 -5 -68 -10z"/>
<path d="M4965 2287 c-162 -54 -261 -176 -287 -355 -25 -171 22 -324 132 -425
87 -81 145 -101 290 -102 109 0 119 2 182 32 36 17 85 50 108 73 41 41 85 122
92 168 3 23 2 24 -87 24 l-89 0 -28 -40 c-73 -105 -247 -115 -345 -20 -76 73
-100 227 -53 336 48 112 159 169 276 143 58 -13 127 -63 139 -102 6 -17 16
-19 101 -19 l94 0 -6 28 c-25 102 -115 205 -211 243 -72 28 -245 36 -308 16z"/>
<path d="M2470 1855 l0 -435 90 0 90 0 0 435 0 435 -90 0 -90 0 0 -435z"/>
<path d="M2807 2283 c-4 -3 -7 -199 -7 -435 l0 -428 85 0 85 0 2 291 3 291
109 -291 108 -291 92 0 91 0 104 283 c57 155 108 286 113 292 4 5 8 -122 8
-283 l0 -292 80 0 80 0 0 435 0 435 -119 0 -119 0 -30 -77 c-16 -43 -69 -185
-117 -316 -52 -140 -92 -233 -96 -225 -4 7 -55 141 -114 298 -59 157 -111 293
-116 303 -8 15 -25 17 -123 17 -62 0 -116 -3 -119 -7z"/>
<path d="M3920 1855 l0 -435 335 0 335 0 0 85 0 85 -245 0 -245 0 0 90 0 90
215 0 215 0 0 85 0 85 -215 0 -215 0 0 85 0 85 245 0 245 0 0 90 0 90 -335 0
-335 0 0 -435z"/>
</g>
</svg>
